<?xml version="1.0" standalone="no"?>
<!DOCTYPE svg PUBLIC "-//W3C//DTD SVG 20010904//EN"
 "http://www.w3.org/TR/2001/REC-SVG-20010904/DTD/svg10.dtd">
<svg version="1.0" xmlns="http://www.w3.org/2000/svg"
 width="512.000000pt" height="512.000000pt" viewBox="0 0 512.000000 512.000000"
 preserveAspectRatio="xMidYMid meet">

<g transform="translate(0.000000,512.000000) scale(0.100000,-0.100000)"
fill="#000000" stroke="none">
<path d="M2390 5110 c-157 -22 -329 -75 -461 -140 -95 -48 -234 -147 -319
-227 -203 -191 -334 -415 -407 -697 -27 -101 -27 -102 -30 -573 l-4 -473 -123
0 c-201 0 -285 -41 -348 -167 l-33 -68 0 -1260 c0 -1052 2 -1267 14 -1300 32
-93 104 -163 197 -191 73 -22 3296 -21 3371 1 78 23 136 74 175 152 l33 68 0
1265 0 1265 -33 68 c-63 127 -147 167 -349 167 l-123 0 0 428 c0 461 -5 523
-55 697 -86 295 -296 581 -557 756 -162 107 -310 170 -496 209 -111 24 -350
34 -452 20z m405 -519 c317 -91 554 -334 637 -653 20 -77 21 -113 25 -510 l5
-428 -902 0 -902 0 5 428 c4 397 5 433 25 510 87 335 351 591 687 666 99 22
324 15 420 -13z m-114 -2497 c151 -48 252 -192 253 -361 0 -74 -4 -88 -37
-157 -25 -50 -53 -89 -86 -118 l-49 -43 54 -250 c29 -137 53 -258 54 -267 0
-17 -21 -18 -310 -18 -289 0 -310 1 -309 18 0 9 24 130 53 267 l53 250 -48 43
c-94 83 -143 229 -119 349 47 228 269 357 491 287z"/>
</g>
</svg>
